<?xml version="1.0" encoding="utf-8"?>
<!-- Generator: Adobe Illustrator 16.0.0, SVG Export Plug-In . SVG Version: 6.00 Build 0)  -->
<!DOCTYPE svg PUBLIC "-//W3C//DTD SVG 1.1//EN" "http://www.w3.org/Graphics/SVG/1.1/DTD/svg11.dtd">
<svg version="1.1" id="Layer_1" xmlns="http://www.w3.org/2000/svg" xmlns:xlink="http://www.w3.org/1999/xlink" x="0px" y="0px"
	 width="1192.5px" height="179px" viewBox="7.5 154.5 1192.5 179" enable-background="new 7.5 154.5 1192.5 179"
	 xml:space="preserve">
<g id="Layer_1_1_">
	<g>
		<g>
			<g>
				<defs>
					<path id="SVGID_1_" d="M87.87,198.339c-0.668,0.836-1.875,1.461-3.625,1.875c-1.75,0.418-3.543-0.039-5.375-1.375
						c-1.336-1-2.918-2.039-4.75-3.125c-1.836-1.082-3.836-2.125-6-3.125c-2.168-1-4.336-1.832-6.5-2.5c-2.168-0.664-4.25-1-6.25-1
						c-2.5,0-5.125,0.586-7.875,1.75c-2.75,1.168-5.125,2.836-7.125,5c-3.836,4.168-5.211,8.211-4.125,12.125
						c1.082,3.918,3.957,7.543,8.625,10.875c3,2.168,6.25,4.375,9.75,6.625s6.957,4.461,10.375,6.625
						c3.414,2.168,6.664,4.25,9.75,6.25c3.082,2,5.789,3.75,8.125,5.25c3,2,5.832,4.168,8.5,6.5c2.664,2.336,5,4.961,7,7.875
						c2,2.918,3.582,6.211,4.75,9.875c1.164,3.668,1.75,7.836,1.75,12.5c-1.168,9.168-4.793,16.461-10.875,21.875
						c-6.086,5.418-13.125,8.875-21.125,10.375c-7,1.336-13.875,1.086-20.625-0.75c-6.75-1.832-12.461-5.332-17.125-10.5
						c-1.168-1.333-2.168-3.165-3-5.5c-0.836-2.332-0.918-4-0.25-5c1-1.5,2.75-2.539,5.25-3.125c2.5-0.582,4.414-0.457,5.75,0.375
						c3.832,3.5,8.332,6.043,13.5,7.625c5.164,1.586,10.582,1.711,16.25,0.375c4.332-1,7.832-2.875,10.5-5.625
						c2.664-2.75,4.332-5.875,5-9.375c0.832-3.664,0.375-7.457-1.375-11.375c-1.75-3.914-4.875-7.457-9.375-10.625
						c-6.836-5.164-14.125-10-21.875-14.5s-15.625-9.664-23.625-15.5c-3.836-3.332-6.625-7-8.375-11s-2.625-7.914-2.625-11.75
						c0-4,0.832-7.789,2.5-11.375c1.664-3.582,4-6.832,7-9.75c3-2.914,6.5-5.289,10.5-7.125c4-1.832,8.414-2.914,13.25-3.25
						c6.664-0.332,13.082,1.043,19.25,4.125c6.164,3.086,11.164,6.875,15,11.375c0.832,1,1.207,2.25,1.125,3.75
						C89.409,195.589,88.87,197.007,87.87,198.339z"/>
				</defs>
				<clipPath id="SVGID_2_">
					<use xlink:href="#SVGID_1_"  overflow="visible"/>
				</clipPath>
				
					<path id="_x3C_Path_x3E_s" clip-path="url(#SVGID_2_)" class="intro_ani" fill="none" stroke="#5A969E" stroke-width="22" stroke-linecap="round" stroke-miterlimit="10" d="
					M85,195c0,0-26-29-47-9s6,47,43,67s3,74-44,42"/>
			</g>
		</g>
		<g>
			<g>
				<defs>
					<path id="SVGID_3_" d="M207.116,211.089c0.664,3,1.332,6.543,2,10.625c0.664,4.086,1.125,8.336,1.375,12.75
						c0.25,4.418,0.289,8.961,0.125,13.625c-0.168,4.668-0.668,9.168-1.5,13.5c-1,5-3,9.586-6,13.75c-3,4.168-6.668,7.918-11,11.25
						c-4.168,3.336-8.793,6.043-13.875,8.125c-5.086,2.086-10.168,3.586-15.25,4.5c-5.086,0.918-10.086,1.086-15,0.5
						c-4.918-0.582-9.293-1.957-13.125-4.125c-4.336-2.5-7.836-5.75-10.5-9.75c-2.668-4-3.836-8.914-3.5-14.75
						c0.332-5.664,0.832-10.875,1.5-15.625c0.664-4.75,1.539-9.289,2.625-13.625c1.082-4.332,2.289-8.707,3.625-13.125
						c1.332-4.414,2.75-9.039,4.25-13.875c0.832-2.164,2.332-3.414,4.5-3.75c0.832-0.164,1.832-0.164,3,0
						c0.5,0,1.207,0.293,2.125,0.875c0.914,0.586,1.789,1.375,2.625,2.375c0.832,1,1.539,2.168,2.125,3.5
						c0.582,1.336,0.625,2.836,0.125,4.5c-1.5,5.336-3,10.75-4.5,16.25s-2.793,10.75-3.875,15.75c-1.086,5-1.75,9.461-2,13.375
						c-0.25,3.918,0.125,6.961,1.125,9.125c2.164,3.168,5.125,5.211,8.875,6.125c3.75,0.918,7.707,1.043,11.875,0.375
						c4.164-0.664,8.207-1.789,12.125-3.375c3.914-1.582,7.289-3.289,10.125-5.125c4.5-3,7.789-6.75,9.875-11.25
						c2.082-4.5,3.375-9.414,3.875-14.75c0.5-5.332,0.457-10.914-0.125-16.75c-0.586-5.832-1.375-11.582-2.375-17.25
						c-0.336-1.5-0.25-3.414,0.25-5.75c0.5-2.332,1.832-4.164,4-5.5c2.332-1.332,4.457-1.164,6.375,0.5
						C204.905,205.757,206.28,208.089,207.116,211.089z"/>
				</defs>
				<clipPath id="SVGID_4_">
					<use xlink:href="#SVGID_3_"  overflow="visible"/>
				</clipPath>
				
					<path id="_x3C_Path_x3E_u" clip-path="url(#SVGID_4_)"  class="intro_ani" fill="none" stroke="#5A969E" stroke-width="22" stroke-linecap="round" stroke-miterlimit="10" d="
					M141,214c0,0-31,74,3,78s44-12,54-32s-3-56-3-56"/>
			</g>
		</g>
		<g>
			<g>
				<defs>
					<path id="SVGID_5_" d="M326.366,202.589c-1.168,14.168-2.543,28.625-4.125,43.375c-1.586,14.75-3.711,28.625-6.375,41.625
						c-0.668,3.168-1.586,5.418-2.75,6.75c-1.168,1.336-2.836,2.25-5,2.75c-1.836,0.336-4.375-0.25-7.625-1.75
						s-5.961-3.664-8.125-6.5c-2.836-3.832-5.875-8.039-9.125-12.625c-3.25-4.582-6.75-9.25-10.5-14s-7.668-9.457-11.75-14.125
						c-4.086-4.664-8.375-9-12.875-13c-0.5,11-0.918,21.875-1.25,32.625c-0.336,10.75-0.336,21.543,0,32.375
						c0,1.5-1.336,2.25-4,2.25c-3.168,0-5.75-1.625-7.75-4.875s-3.168-6.539-3.5-9.875c-0.5-3.332-0.75-8.125-0.75-14.375
						s0.125-12.789,0.375-19.625c0.25-6.832,0.539-13.414,0.875-19.75c0.332-6.332,0.664-11.332,1-15
						c0.332-4,1.289-6.914,2.875-8.75c1.582-1.832,3.125-2.664,4.625-2.5c3.332,0.336,5.539,1.293,6.625,2.875
						c1.082,1.586,1.707,3.543,1.875,5.875c6,4.336,11.539,9,16.625,14c5.082,5,9.75,10.086,14,15.25
						c4.25,5.168,8.164,10.293,11.75,15.375c3.582,5.086,6.957,9.711,10.125,13.875c2-10,3.625-21.164,4.875-33.5
						c1.25-12.332,2.539-25.25,3.875-38.75c-0.168-1.664,0.832-3.289,3-4.875c2.164-1.582,4.164-2.289,6-2.125
						C324.03,195.925,326.366,198.257,326.366,202.589z"/>
				</defs>
				<clipPath id="SVGID_6_">
					<use xlink:href="#SVGID_5_"  overflow="visible"/>
				</clipPath>
				
					<path id="_x3C_Path_x3E_n" clip-path="url(#SVGID_6_)"  class="intro_ani" fill="none" stroke="#5A969E" stroke-width="22" stroke-linecap="round" stroke-miterlimit="10" d="
					M240,295c0,0-4-83,1-83s54,77,61,77s17-91,17-91"/>
			</g>
		</g>
		<g>
			<g>
				<defs>
					<path id="SVGID_7_" d="M456.866,305.34c-0.168,1.836-0.711,3.543-1.625,5.125c-0.918,1.586-2.293,2.293-4.125,2.125
						c-2.836-0.164-5.293-1.25-7.375-3.25c-2.086-2-3.125-3.664-3.125-5c0.164-14.5-0.293-29.29-1.375-44.375
						c-1.086-15.082-2.793-30.125-5.125-45.125c0-0.664,0.164-1.414,0.5-2.25c0.332-0.664,0.75-1.457,1.25-2.375
						c0.5-0.914,1.332-1.789,2.5-2.625c1.164-0.5,2.457-0.414,3.875,0.25c1.414,0.668,2.789,1.668,4.125,3
						c1.332,1.336,2.5,2.836,3.5,4.5c1,1.668,1.75,3.25,2.25,4.75c0.5,3.336,1,7,1.5,11s0.914,8.168,1.25,12.5
						c4-2.164,7.832-4.582,11.5-7.25c3.664-2.664,6.875-5.582,9.625-8.75c2.75-3.164,4.875-6.457,6.375-9.875
						c1.5-3.414,2-6.957,1.5-10.625c-0.336-2.832-1.586-5.414-3.75-7.75c-2.168-2.332-5.5-4.082-10-5.25
						c-10.336-2.332-19.586-2.457-27.75-0.375c-8.168,2.086-16,5.543-23.5,10.375c-2.168,1.668-4.168,2.668-6,3
						c-1.836,0.336-3.418,0.25-4.75-0.25c-1.336-0.5-2.336-1.25-3-2.25s-1-2-1-3c0.336-3.832,2.207-7.289,5.625-10.375
						c3.414-3.082,7.039-5.707,10.875-7.875c5-2.5,11.164-4.582,18.5-6.25c7.332-1.664,14.707-2.289,22.125-1.875
						c7.414,0.418,14.375,2.211,20.875,5.375c6.5,3.168,11.5,8.25,15,15.25c3.164,8.336,3.875,15.836,2.125,22.5
						c-1.75,6.668-4.875,12.75-9.375,18.25s-9.836,10.543-16,15.125c-6.168,4.586-12,8.793-17.5,12.625
						c0.332,7.336,0.539,14.5,0.625,21.5C457.073,292.839,457.03,299.339,456.866,305.34z"/>
				</defs>
				<clipPath id="SVGID_8_">
					<use xlink:href="#SVGID_7_"  overflow="visible"/>
				</clipPath>
				
					<path id="_x3C_Path_x3E_p" clip-path="url(#SVGID_8_)"  class="intro_ani" fill="none" stroke="#5A969E" stroke-width="22" stroke-linecap="round" stroke-miterlimit="10" d="
					M411,203c0,0,45-39,74-13s-30,65-37,64s-7-46.333-7-46.333L451,307"/>
			</g>
		</g>
		<g>
			<g>
				<defs>
					<path id="SVGID_9_" d="M574.613,217.589c5,1.836,9.207,4.586,12.625,8.25c3.414,3.668,6.039,7.793,7.875,12.375
						c1.832,4.586,2.875,9.293,3.125,14.125c0.25,4.836-0.293,9.336-1.625,13.5c-1.836,4.668-4.168,9.25-7,13.75
						c-2.836,4.5-6.086,8.5-9.75,12c-3.668,3.5-7.836,6.336-12.5,8.5c-4.668,2.168-9.836,3.25-15.5,3.25
						c-6.836,0-12.586-1.582-17.25-4.75c-4.668-3.164-8.336-7.25-11-12.25c-2.668-5-4.375-10.664-5.125-17
						c-0.75-6.332-0.625-12.664,0.375-19c0.664-4.664,1.789-9.207,3.375-13.625c1.582-4.414,3.625-8.332,6.125-11.75
						c2.5-3.414,5.375-6.207,8.625-8.375c3.25-2.164,6.957-3.25,11.125-3.25c2.332,0,5.25,0.461,8.75,1.375
						c3.5,0.918,6.75,2.211,9.75,3.875C568.777,216.589,571.445,216.257,574.613,217.589z M565.113,235.839
						c-1.836-1.164-3.961-2.707-6.375-4.625c-2.418-1.914-4.543-2.875-6.375-2.875c-2,0-3.961,0.918-5.875,2.75
						c-1.918,1.836-3.586,3.961-5,6.375c-1.418,2.418-2.625,4.875-3.625,7.375s-1.668,4.5-2,6c-0.5,2.5-0.836,5.5-1,9
						c-0.168,3.5,0.082,6.961,0.75,10.375c0.664,3.418,1.957,6.5,3.875,9.25c1.914,2.75,4.789,4.711,8.625,5.875
						c2.332,0.668,5.082,0.625,8.25-0.125c3.164-0.75,6.289-2.125,9.375-4.125c3.082-2,6-4.664,8.75-8
						c2.75-3.332,4.875-7.164,6.375-11.5c1.664-4.832,1.707-9.875,0.125-15.125c-1.586-5.25-4.793-9.039-9.625-11.375
						c-1.168,0.836-2.336,1.25-3.5,1.25C566.695,236.339,565.777,236.175,565.113,235.839z"/>
				</defs>
				<clipPath id="SVGID_10_">
					<use xlink:href="#SVGID_9_"  overflow="visible"/>
				</clipPath>
				
					<path id="_x3C_Path_x3E_o1" clip-path="url(#SVGID_10_)"  class="intro_ani" fill="none" stroke="#5A969E" stroke-width="22" stroke-linecap="round" stroke-miterlimit="10" d="
					M567,231c0,0-21-27-38,7s3,73,39,55s22-60,5-71"/>
			</g>
		</g>
		<g>
			<g>
				<defs>
					<path id="SVGID_11_" d="M692.861,218.589c-3,1.668-6.125,3.418-9.375,5.25c-3.25,1.836-6.5,3.961-9.75,6.375
						c-3.25,2.418-6.336,5.25-9.25,8.5c-2.918,3.25-5.543,7.125-7.875,11.625c-3.336,6.336-5.586,12.793-6.75,19.375
						c-1.168,6.586-1.918,13.043-2.25,19.375c0,3-0.711,6.043-2.125,9.125c-1.418,3.086-3.375,4.625-5.875,4.625
						c-3.168,0-5.711-1.625-7.625-4.875c-1.918-3.25-3.211-6.375-3.875-9.375c-2.836-11.832-5.168-23.539-7-35.125
						c-1.836-11.582-3.418-23.125-4.75-34.625c0-2.332,0.707-3.832,2.125-4.5c1.414-0.664,3.039-0.914,4.875-0.75
						c2,0.168,3.914,0.668,5.75,1.5c1.832,0.836,2.914,2.168,3.25,4c0.664,6.168,1.5,12.625,2.5,19.375s2,12.543,3,17.375
						c0.664-5.664,2.5-11.164,5.5-16.5c3-5.332,6.707-10.164,11.125-14.5c4.414-4.332,9.414-8,15-11c5.582-3,11.289-5,17.125-6
						c2.5-0.332,4.582-0.332,6.25,0c1.664,0.336,2.832,0.918,3.5,1.75c0.664,0.836,0.789,2.168,0.375,4
						C696.318,215.425,695.025,217.089,692.861,218.589z"/>
				</defs>
				<clipPath id="SVGID_12_">
					<use xlink:href="#SVGID_11_"  overflow="visible"/>
				</clipPath>
				
					<path id="_x3C_Path_x3E_r" clip-path="url(#SVGID_12_)"  class="intro_ani" fill="none" stroke="#5A969E" stroke-width="22" stroke-linecap="round" stroke-miterlimit="10" d="
					M621,218c0,0,16,79,20,78s-11-78,54-83"/>
			</g>
		</g>
		<g>
			<g>
				<defs>
					<path id="SVGID_13_" d="M764.609,237.839c3.164-0.164,6.332,0.586,9.5,2.25c3.164,1.668,4.75,4.25,4.75,7.75
						c-0.336,2.836-1.875,4.625-4.625,5.375s-4.961,1.125-6.625,1.125c-3.336,0-6.918,0.086-10.75,0.25
						c-3.836,0.168-7.75,0.418-11.75,0.75c-0.336,5.5-0.625,10.668-0.875,15.5c-0.25,4.836-0.461,9.125-0.625,12.875
						c-0.168,3.75-0.25,6.793-0.25,9.125c0,2.336,0.082,3.586,0.25,3.75c3.664-0.664,7.625-1.789,11.875-3.375
						c4.25-1.582,8.5-3.332,12.75-5.25c4.25-1.914,8.414-3.914,12.5-6c4.082-2.082,7.957-4.039,11.625-5.875
						c1.664-0.832,3.207-1.082,4.625-0.75c1.414,0.336,2.289,1.086,2.625,2.25c0.332,1.836,0.082,4.086-0.75,6.75
						c-0.836,2.668-2.336,5.086-4.5,7.25c-2.5,2-5.793,4.293-9.875,6.875c-4.086,2.586-8.461,5.043-13.125,7.375
						c-4.668,2.336-9.375,4.375-14.125,6.125s-8.961,2.793-12.625,3.125c-5.5,0.5-9.668-1-12.5-4.5
						c-2.836-3.5-4.418-7.914-4.75-13.25c-0.336-5.332-0.375-11.5-0.125-18.5s0.539-14.414,0.875-22.25
						c-3.168,0.336-6.211,0.625-9.125,0.875c-2.918,0.25-5.711,0.543-8.375,0.875c-2.168,0-4.543-0.5-7.125-1.5
						c-2.586-1-3.875-2.914-3.875-5.75c0-1,0.414-2.332,1.25-4c0.832-1.664,2.664-2.914,5.5-3.75c6.832-1.164,14.414-2.164,22.75-3
						c0.5-7.832,1.082-15.414,1.75-22.75c0.664-7.332,1.25-14,1.75-20c0.164-2,0.75-3.75,1.75-5.25s2.082-2.25,3.25-2.25
						c2.832-0.164,5.539,0.543,8.125,2.125c2.582,1.586,3.875,3.375,3.875,5.375c-0.668,5.668-1.293,12.086-1.875,19.25
						c-0.586,7.168-1.125,14.5-1.625,22c3.332-0.332,6.539-0.539,9.625-0.625C758.816,238.132,761.773,238.007,764.609,237.839z"/>
				</defs>
				<clipPath id="SVGID_14_">
					<use xlink:href="#SVGID_13_"  overflow="visible"/>
				</clipPath>
				
					<path id="_x3C_Path_x3E_t" clip-path="url(#SVGID_14_)"  class="intro_ani" fill="none" stroke="#5A969E" stroke-width="22" stroke-linecap="round" stroke-miterlimit="10" d="
					M740,194c0,0-12,112-1,112s54-19,57-26"/>
			</g>
			<g>
				<defs>
					<path id="SVGID_15_" d="M764.609,237.839c3.164-0.164,6.332,0.586,9.5,2.25c3.164,1.668,4.75,4.25,4.75,7.75
						c-0.336,2.836-1.875,4.625-4.625,5.375s-4.961,1.125-6.625,1.125c-3.336,0-6.918,0.086-10.75,0.25
						c-3.836,0.168-7.75,0.418-11.75,0.75c-0.336,5.5-0.625,10.668-0.875,15.5c-0.25,4.836-0.461,9.125-0.625,12.875
						c-0.168,3.75-0.25,6.793-0.25,9.125c0,2.336,0.082,3.586,0.25,3.75c3.664-0.664,7.625-1.789,11.875-3.375
						c4.25-1.582,8.5-3.332,12.75-5.25c4.25-1.914,8.414-3.914,12.5-6c4.082-2.082,7.957-4.039,11.625-5.875
						c1.664-0.832,3.207-1.082,4.625-0.75c1.414,0.336,2.289,1.086,2.625,2.25c0.332,1.836,0.082,4.086-0.75,6.75
						c-0.836,2.668-2.336,5.086-4.5,7.25c-2.5,2-5.793,4.293-9.875,6.875c-4.086,2.586-8.461,5.043-13.125,7.375
						c-4.668,2.336-9.375,4.375-14.125,6.125s-8.961,2.793-12.625,3.125c-5.5,0.5-9.668-1-12.5-4.5
						c-2.836-3.5-4.418-7.914-4.75-13.25c-0.336-5.332-0.375-11.5-0.125-18.5s0.539-14.414,0.875-22.25
						c-3.168,0.336-6.211,0.625-9.125,0.875c-2.918,0.25-5.711,0.543-8.375,0.875c-2.168,0-4.543-0.5-7.125-1.5
						c-2.586-1-3.875-2.914-3.875-5.75c0-1,0.414-2.332,1.25-4c0.832-1.664,2.664-2.914,5.5-3.75c6.832-1.164,14.414-2.164,22.75-3
						c0.5-7.832,1.082-15.414,1.75-22.75c0.664-7.332,1.25-14,1.75-20c0.164-2,0.75-3.75,1.75-5.25s2.082-2.25,3.25-2.25
						c2.832-0.164,5.539,0.543,8.125,2.125c2.582,1.586,3.875,3.375,3.875,5.375c-0.668,5.668-1.293,12.086-1.875,19.25
						c-0.586,7.168-1.125,14.5-1.625,22c3.332-0.332,6.539-0.539,9.625-0.625C758.816,238.132,761.773,238.007,764.609,237.839z"/>
				</defs>
				<clipPath id="SVGID_16_">
					<use xlink:href="#SVGID_15_"  overflow="visible"/>
				</clipPath>
				
					<path id="_x3C_Path_x3E_tt" clip-path="url(#SVGID_16_)"  class="intro_ani" fill="none" stroke="#5A969E" stroke-width="22" stroke-linecap="round" stroke-miterlimit="10" d="
					M704,249c0,0,63-8,70-3"/>
			</g>
		</g>
		<g>
			<g>
				<defs>
					<path id="SVGID_17_" d="M818.607,259.339c-2.337,0.336-5.044,0.086-8.125-0.75c-3.087-0.832-5.212-2.914-6.375-6.25
						c-0.5-1.664-0.587-3.289-0.25-4.875c0.331-1.582,2.081-2.707,5.25-3.375c3-0.664,6.206-1.289,9.625-1.875
						c3.413-0.582,6.875-1.125,10.375-1.625l-9.25-28c-2.837-10.664-3.169-19.832-1-27.5c2.163-7.664,8.331-13.164,18.5-16.5
						c4.163-1.332,8.288-1.832,12.374-1.5c4.082,0.336,7.957,1.418,11.625,3.25c3.664,1.836,7,4.25,10,7.25s5.414,6.5,7.25,10.5
						c0.664,1.836,1.039,3.461,1.125,4.875c0.082,1.418-0.461,2.711-1.625,3.875c-1.668,1.668-3.5,2.375-5.5,2.125
						s-3.336-0.789-4-1.625c-1.5-1.832-3.125-3.707-4.875-5.625c-1.75-1.914-3.586-3.582-5.5-5c-1.918-1.414-3.961-2.5-6.125-3.25
						c-2.168-0.75-4.5-0.957-7-0.625c-1.168,0.168-2.543,0.75-4.124,1.75c-1.587,1-2.962,2.543-4.125,4.625
						c-1.169,2.086-1.875,4.793-2.125,8.125c-0.25,3.336,0.288,7.5,1.625,12.5c1.163,4.168,2.5,8.668,4,13.5
						c1.5,4.836,3.163,9.918,4.999,15.25c8-0.832,15.332-1.082,22-0.75c3.664,0.336,7.082,1,10.25,2c3.164,1,5.75,2.5,7.75,4.5
						c0.5,1.668,0.414,3.043-0.25,4.125c-0.668,1.086-1.625,2-2.875,2.75s-2.668,1.293-4.25,1.625
						c-1.586,0.336-3.125,0.586-4.625,0.75c-3.336,0.336-6.836,0.711-10.5,1.125c-3.668,0.418-7.5,0.793-11.5,1.125
						c2.664,7.5,5.125,14.625,7.375,21.375s4.039,12.375,5.375,16.875c0.664,2.5,0.75,5.168,0.25,8c-0.5,2.836-1.168,5.586-2,8.25
						c-1.336,3.836-3,6.918-5,9.25c-2,2.336-4.168,3.086-6.5,2.25c-1.836-0.832-3-1.914-3.5-3.25c-0.5-1.332-0.586-3.164-0.25-5.5
						c0.332-2.664,0.5-5.332,0.5-8c0-2.664-0.125-5.125-0.375-7.375s-0.586-4.25-1-6c-0.418-1.75-0.711-2.957-0.875-3.625
						l-10.499-30.5c-2.669,0.336-5.337,0.625-8,0.875C824.189,258.714,821.439,259.007,818.607,259.339z"/>
				</defs>
				<clipPath id="SVGID_18_">
					<use xlink:href="#SVGID_17_"  overflow="visible"/>
				</clipPath>
				
					<path id="_x3C_Path_x3E_f" clip-path="url(#SVGID_18_)"  class="intro_ani" fill="none" stroke="#5A969E" stroke-width="22" stroke-linecap="round" stroke-miterlimit="10" d="
					M873,192c0,0-23-34-41-11s32,108,19,135"/>
			</g>
			<g>
				<defs>
					<path id="SVGID_19_" d="M818.607,259.339c-2.337,0.336-5.044,0.086-8.125-0.75c-3.087-0.832-5.212-2.914-6.375-6.25
						c-0.5-1.664-0.587-3.289-0.25-4.875c0.331-1.582,2.081-2.707,5.25-3.375c3-0.664,6.206-1.289,9.625-1.875
						c3.413-0.582,6.875-1.125,10.375-1.625l-9.25-28c-2.837-10.664-3.169-19.832-1-27.5c2.163-7.664,8.331-13.164,18.5-16.5
						c4.163-1.332,8.288-1.832,12.374-1.5c4.082,0.336,7.957,1.418,11.625,3.25c3.664,1.836,7,4.25,10,7.25s5.414,6.5,7.25,10.5
						c0.664,1.836,1.039,3.461,1.125,4.875c0.082,1.418-0.461,2.711-1.625,3.875c-1.668,1.668-3.5,2.375-5.5,2.125
						s-3.336-0.789-4-1.625c-1.5-1.832-3.125-3.707-4.875-5.625c-1.75-1.914-3.586-3.582-5.5-5c-1.918-1.414-3.961-2.5-6.125-3.25
						c-2.168-0.75-4.5-0.957-7-0.625c-1.168,0.168-2.543,0.75-4.124,1.75c-1.587,1-2.962,2.543-4.125,4.625
						c-1.169,2.086-1.875,4.793-2.125,8.125c-0.25,3.336,0.288,7.5,1.625,12.5c1.163,4.168,2.5,8.668,4,13.5
						c1.5,4.836,3.163,9.918,4.999,15.25c8-0.832,15.332-1.082,22-0.75c3.664,0.336,7.082,1,10.25,2c3.164,1,5.75,2.5,7.75,4.5
						c0.5,1.668,0.414,3.043-0.25,4.125c-0.668,1.086-1.625,2-2.875,2.75s-2.668,1.293-4.25,1.625
						c-1.586,0.336-3.125,0.586-4.625,0.75c-3.336,0.336-6.836,0.711-10.5,1.125c-3.668,0.418-7.5,0.793-11.5,1.125
						c2.664,7.5,5.125,14.625,7.375,21.375s4.039,12.375,5.375,16.875c0.664,2.5,0.75,5.168,0.25,8c-0.5,2.836-1.168,5.586-2,8.25
						c-1.336,3.836-3,6.918-5,9.25c-2,2.336-4.168,3.086-6.5,2.25c-1.836-0.832-3-1.914-3.5-3.25c-0.5-1.332-0.586-3.164-0.25-5.5
						c0.332-2.664,0.5-5.332,0.5-8c0-2.664-0.125-5.125-0.375-7.375s-0.586-4.25-1-6c-0.418-1.75-0.711-2.957-0.875-3.625
						l-10.499-30.5c-2.669,0.336-5.337,0.625-8,0.875C824.189,258.714,821.439,259.007,818.607,259.339z"/>
				</defs>
				<clipPath id="SVGID_20_">
					<use xlink:href="#SVGID_19_"  overflow="visible"/>
				</clipPath>
				
					<path id="_x3C_Path_x3E_ff" clip-path="url(#SVGID_20_)"  class="intro_ani" fill="none" stroke="#5A969E" stroke-width="22" stroke-linecap="round" stroke-miterlimit="10" d="
					M805,251c0,0,70-10,79-3"/>
			</g>
		</g>
		<g>
			<g>
				<defs>
					<path id="SVGID_21_" d="M960.104,217.589c5,1.836,9.207,4.586,12.625,8.25c3.414,3.668,6.039,7.793,7.875,12.375
						c1.832,4.586,2.875,9.293,3.125,14.125c0.25,4.836-0.293,9.336-1.625,13.5c-1.836,4.668-4.168,9.25-7,13.75
						c-2.836,4.5-6.086,8.5-9.75,12c-3.668,3.5-7.836,6.336-12.5,8.5c-4.668,2.168-9.836,3.25-15.5,3.25
						c-6.836,0-12.586-1.582-17.25-4.75c-4.668-3.164-8.336-7.25-11-12.25c-2.668-5-4.375-10.664-5.125-17
						c-0.75-6.332-0.625-12.664,0.375-19c0.664-4.664,1.789-9.207,3.375-13.625c1.582-4.414,3.625-8.332,6.125-11.75
						c2.5-3.414,5.375-6.207,8.625-8.375c3.25-2.164,6.957-3.25,11.125-3.25c2.332,0,5.25,0.461,8.75,1.375
						c3.5,0.918,6.75,2.211,9.75,3.875C954.269,216.589,956.937,216.257,960.104,217.589z M950.604,235.839
						c-1.836-1.164-3.961-2.707-6.375-4.625c-2.418-1.914-4.543-2.875-6.375-2.875c-2,0-3.961,0.918-5.875,2.75
						c-1.918,1.836-3.586,3.961-5,6.375c-1.418,2.418-2.625,4.875-3.625,7.375s-1.668,4.5-2,6c-0.5,2.5-0.836,5.5-1,9
						c-0.168,3.5,0.082,6.961,0.75,10.375c0.664,3.418,1.957,6.5,3.875,9.25c1.914,2.75,4.789,4.711,8.625,5.875
						c2.332,0.668,5.082,0.625,8.25-0.125c3.164-0.75,6.289-2.125,9.375-4.125c3.082-2,6-4.664,8.75-8
						c2.75-3.332,4.875-7.164,6.375-11.5c1.664-4.832,1.707-9.875,0.125-15.125c-1.586-5.25-4.793-9.039-9.625-11.375
						c-1.168,0.836-2.336,1.25-3.5,1.25C952.187,236.339,951.269,236.175,950.604,235.839z"/>
				</defs>
				<clipPath id="SVGID_22_">
					<use xlink:href="#SVGID_21_"  overflow="visible"/>
				</clipPath>
				
					<path id="_x3C_Path_x3E_o2" clip-path="url(#SVGID_22_)"  class="intro_ani" fill="none" stroke="#5A969E" stroke-width="22" stroke-linecap="round" stroke-miterlimit="10" d="
					M952,228c0,0-25-28-38,22s25,54,50,34s8-59-6-61"/>
			</g>
		</g>
		<g>
			<g>
				<defs>
					<path id="SVGID_23_" d="M1024.603,187.839c0.832,18.168,2.25,36.961,4.25,56.375c2,19.418,4.163,37.961,6.5,55.625
						c0.5,7.336-1.5,11.086-6,11.25c-1,0-2-0.375-3-1.125s-1.918-1.707-2.75-2.875c-0.836-1.164-1.625-2.414-2.375-3.75
						c-0.75-1.332-1.211-2.5-1.375-3.5c-1.336-8.5-2.586-17.5-3.75-27c-1.168-9.5-2.211-19.039-3.125-28.625
						c-0.918-9.582-1.711-18.957-2.375-28.125c-0.668-9.164-1.086-17.582-1.25-25.25c0.332-4,0.914-7.375,1.75-10.125
						c0.832-2.75,2.582-4.039,5.25-3.875c2.832,0.168,4.875,1.293,6.125,3.375C1023.728,182.3,1024.434,184.839,1024.603,187.839z"
						/>
				</defs>
				<clipPath id="SVGID_24_">
					<use xlink:href="#SVGID_23_"  overflow="visible"/>
				</clipPath>
				
					<path id="_x3C_Path_x3E_l" clip-path="url(#SVGID_24_)"  class="intro_ani" fill="none" stroke="#5A969E" stroke-width="22" stroke-linecap="round" stroke-miterlimit="10" d="
					M1017,181c0,0,1,114,13,125"/>
			</g>
		</g>
		<g>
			<g>
				<defs>
					<path id="SVGID_25_" d="M1097.853,202.839c-0.337,1.668-1.5,2.586-3.5,2.75c-2,0.168-3.668,0.25-5,0.25
						c-4.168,0.168-8.462,0.586-12.875,1.25c-4.418,0.668-9.043,1.668-13.875,3c-2,0.668-4.168,0.418-6.5-0.75
						c-2.337-1.164-3.75-3.5-4.25-7c0-1.332,0.5-2.414,1.5-3.25c1-0.832,2.163-1.582,3.5-2.25c2.163-1,4.75-1.875,7.75-2.625
						s6.038-1.289,9.125-1.625c3.082-0.332,6.038-0.457,8.875-0.375c2.832,0.086,5.163,0.375,7,0.875
						c2.663,0.836,4.788,2.086,6.375,3.75C1097.559,198.507,1098.184,200.507,1097.853,202.839z M1092.103,286.089
						c1.163,2.668,1.788,5.543,1.875,8.625c0.082,3.086-0.793,5.211-2.625,6.375c-2.337,1.5-4.837,1.418-7.5-0.25
						c-2.668-1.664-4.668-3.914-6-6.75c-1.837-3.5-3.25-7.789-4.25-12.875c-1-5.082-1.75-10.125-2.25-15.125s-0.793-9.664-0.875-14
						c-0.087-4.332-0.125-7.582-0.125-9.75c0.163-2.332,0.832-4.5,2-6.5c1.163-2,2.663-3.164,4.5-3.5
						c3,0.168,5.413,1.543,7.25,4.125c1.832,2.586,2.663,5.793,2.5,9.625c0,3,0.082,6.336,0.25,10c0.163,3.668,0.5,7.336,1,11
						c0.5,3.668,1.082,7.211,1.75,10.625C1090.266,281.132,1091.103,283.925,1092.103,286.089z"/>
				</defs>
				<clipPath id="SVGID_26_">
					<use xlink:href="#SVGID_25_"  overflow="visible"/>
				</clipPath>
				
					<path id="_x3C_Path_x3E_ii" clip-path="url(#SVGID_26_)"  class="intro_ani" fill="none" stroke="#5A969E" stroke-width="22" stroke-linecap="round" stroke-miterlimit="10" d="
					M1078,237c0,0-2,49,9,63"/>
			</g>
			<g>
				<defs>
					<path id="SVGID_27_" d="M1097.853,202.839c-0.337,1.668-1.5,2.586-3.5,2.75c-2,0.168-3.668,0.25-5,0.25
						c-4.168,0.168-8.462,0.586-12.875,1.25c-4.418,0.668-9.043,1.668-13.875,3c-2,0.668-4.168,0.418-6.5-0.75
						c-2.337-1.164-3.75-3.5-4.25-7c0-1.332,0.5-2.414,1.5-3.25c1-0.832,2.163-1.582,3.5-2.25c2.163-1,4.75-1.875,7.75-2.625
						s6.038-1.289,9.125-1.625c3.082-0.332,6.038-0.457,8.875-0.375c2.832,0.086,5.163,0.375,7,0.875
						c2.663,0.836,4.788,2.086,6.375,3.75C1097.559,198.507,1098.184,200.507,1097.853,202.839z M1092.103,286.089
						c1.163,2.668,1.788,5.543,1.875,8.625c0.082,3.086-0.793,5.211-2.625,6.375c-2.337,1.5-4.837,1.418-7.5-0.25
						c-2.668-1.664-4.668-3.914-6-6.75c-1.837-3.5-3.25-7.789-4.25-12.875c-1-5.082-1.75-10.125-2.25-15.125s-0.793-9.664-0.875-14
						c-0.087-4.332-0.125-7.582-0.125-9.75c0.163-2.332,0.832-4.5,2-6.5c1.163-2,2.663-3.164,4.5-3.5
						c3,0.168,5.413,1.543,7.25,4.125c1.832,2.586,2.663,5.793,2.5,9.625c0,3,0.082,6.336,0.25,10c0.163,3.668,0.5,7.336,1,11
						c0.5,3.668,1.082,7.211,1.75,10.625C1090.266,281.132,1091.103,283.925,1092.103,286.089z"/>
				</defs>
				<clipPath id="SVGID_28_">
					<use xlink:href="#SVGID_27_"  overflow="visible"/>
				</clipPath>
				
					<path id="_x3C_Path_x3E_i" clip-path="url(#SVGID_28_)"  class="intro_ani" fill="none" stroke="#5A969E" stroke-width="22" stroke-linecap="round" stroke-miterlimit="10" d="
					M1056,208c0,0,22-14,33-11"/>
			</g>
		</g>
		<g>
			<g>
				<defs>
					<path id="SVGID_29_" d="M1173.848,217.589c5,1.836,9.207,4.586,12.625,8.25c3.414,3.668,6.039,7.793,7.875,12.375
						c1.832,4.586,2.875,9.293,3.125,14.125c0.25,4.836-0.293,9.336-1.625,13.5c-1.836,4.668-4.168,9.25-7,13.75
						c-2.836,4.5-6.086,8.5-9.75,12c-3.668,3.5-7.836,6.336-12.5,8.5c-4.668,2.168-9.836,3.25-15.5,3.25
						c-6.836,0-12.586-1.582-17.25-4.75c-4.668-3.164-8.336-7.25-11-12.25c-2.668-5-4.375-10.664-5.125-17
						c-0.75-6.332-0.625-12.664,0.375-19c0.664-4.664,1.789-9.207,3.375-13.625c1.582-4.414,3.625-8.332,6.125-11.75
						c2.5-3.414,5.375-6.207,8.625-8.375c3.25-2.164,6.957-3.25,11.125-3.25c2.332,0,5.25,0.461,8.75,1.375
						c3.5,0.918,6.75,2.211,9.75,3.875C1168.012,216.589,1170.68,216.257,1173.848,217.589z M1164.348,235.839
						c-1.836-1.164-3.961-2.707-6.375-4.625c-2.418-1.914-4.543-2.875-6.375-2.875c-2,0-3.961,0.918-5.875,2.75
						c-1.918,1.836-3.586,3.961-5,6.375c-1.418,2.418-2.625,4.875-3.625,7.375s-1.668,4.5-2,6c-0.5,2.5-0.836,5.5-1,9
						c-0.168,3.5,0.082,6.961,0.75,10.375c0.664,3.418,1.957,6.5,3.875,9.25c1.914,2.75,4.789,4.711,8.625,5.875
						c2.332,0.668,5.082,0.625,8.25-0.125c3.164-0.75,6.289-2.125,9.375-4.125c3.082-2,6-4.664,8.75-8
						c2.75-3.332,4.875-7.164,6.375-11.5c1.664-4.832,1.707-9.875,0.125-15.125c-1.586-5.25-4.793-9.039-9.625-11.375
						c-1.168,0.836-2.336,1.25-3.5,1.25C1165.93,236.339,1165.012,236.175,1164.348,235.839z"/>
				</defs>
				<clipPath id="SVGID_30_">
					<use xlink:href="#SVGID_29_"  overflow="visible"/>
				</clipPath>
				
					<path id="_x3C_Path_x3E_o3" clip-path="url(#SVGID_30_)"  class="intro_ani" fill="none" stroke="#5A969E" stroke-width="22" stroke-linecap="round" stroke-miterlimit="10" d="
					M1164,227c0,0-23-21-33,8s-1,46,3,56s50,0,54-26s-10-42-18-42"/>
			</g>
		</g>
	</g>
</g>
<g id="Layer_2">
</g>
</svg>
